<?xml version="1.0" encoding="utf-8"?>
<!-- Generator: Adobe Illustrator 26.0.2, SVG Export Plug-In . SVG Version: 6.00 Build 0)  -->
<svg version="1.1" id="Layer_1" xmlns="http://www.w3.org/2000/svg" xmlns:xlink="http://www.w3.org/1999/xlink" x="0px" y="0px"
	 viewBox="0 0 90.35 41.78" style="enable-background:new 0 0 90.35 41.78;" xml:space="preserve">
<g>
	<g>
		<path d="M1.88,16.52l1.4-6.75c0.52-2.55,0.79-4.8,0.79-6.76c0-0.14,0-0.26-0.01-0.35s-0.01-0.19-0.01-0.3L4.04,2.09L5.33,1.5v0.2
			c0,0.54-0.02,1.12-0.06,1.73C5.2,4.5,5.09,5.61,4.95,6.76L4.91,7.09C5.26,6.11,5.8,5.1,6.53,4.05C6.99,3.39,7.48,2.8,7.99,2.29
			S9.01,1.4,9.5,1.14s0.95-0.38,1.39-0.38c0.62,0,1.11,0.22,1.47,0.67s0.54,1.05,0.54,1.8c0,1.05-0.31,2.13-0.93,3.26
			c-0.62,1.12-1.45,2.11-2.49,2.96c-1.04,0.85-2.14,1.45-3.3,1.78c0.38,0.65,0.78,1.25,1.21,1.82s0.9,1.1,1.39,1.61
			s1,0.96,1.52,1.37l-0.86,0.83c-0.63-0.48-1.26-1.08-1.91-1.79c-0.65-0.71-1.21-1.42-1.69-2.14c-0.48-0.72-0.82-1.38-1.03-1.96
			c0.06,0.01,0.13,0.01,0.21,0.01c0.73,0,1.52-0.21,2.34-0.64s1.56-1.01,2.2-1.73c0.63-0.71,1.13-1.55,1.52-2.52
			s0.58-1.87,0.58-2.71c0-0.58-0.12-1.03-0.36-1.36c-0.24-0.33-0.58-0.49-1-0.49c-0.41,0-0.84,0.14-1.3,0.43S8.11,2.63,7.66,3.13
			S6.76,4.27,6.3,5.02c-0.5,0.85-0.91,1.72-1.23,2.6C4.75,8.5,4.46,9.56,4.19,10.8l-1.21,5.72H1.88z"/>
		<path d="M17.21,14.7l0.21,0.18c-0.48,0.64-0.96,1.1-1.42,1.39s-0.96,0.43-1.49,0.43c-0.63,0-1.14-0.21-1.52-0.63
			c-0.38-0.42-0.58-0.98-0.58-1.68c0-0.7,0.19-1.42,0.56-2.14c0.37-0.72,0.84-1.32,1.4-1.79c0.56-0.47,1.11-0.71,1.66-0.71
			c0.32,0,0.58,0.09,0.79,0.28c0.21,0.19,0.31,0.43,0.31,0.73c0,0.6-0.33,1.2-0.99,1.8c-0.66,0.6-1.55,1.11-2.69,1.54
			c-0.01,0.06-0.01,0.13-0.01,0.21c0,0.54,0.15,0.98,0.45,1.32c0.3,0.34,0.68,0.51,1.15,0.51c0.37,0,0.72-0.12,1.07-0.35
			S16.82,15.19,17.21,14.7z M13.46,13.8c0.84-0.38,1.49-0.79,1.95-1.25c0.3-0.31,0.55-0.65,0.74-1.01c0.19-0.36,0.28-0.68,0.28-0.97
			c0-0.37-0.17-0.55-0.5-0.55c-0.51,0-1.02,0.4-1.54,1.2C13.86,12.02,13.55,12.88,13.46,13.8z"/>
		<path d="M27.23,0l-3.11,13.51c-0.16,0.72-0.25,1.22-0.25,1.5c0,0.25,0.04,0.45,0.13,0.61s0.21,0.23,0.37,0.23
			c0.2,0,0.45-0.15,0.74-0.46l0.34-0.34c0.01-0.01,0.02-0.02,0.02-0.02c0.01-0.01,0.02-0.02,0.04-0.02l0.18,0.16l-0.09,0.11
			c-0.3,0.33-0.45,0.5-0.46,0.5l-0.39,0.39c-0.2,0.2-0.34,0.32-0.43,0.37s-0.19,0.08-0.3,0.08c-0.26,0-0.47-0.13-0.65-0.4
			c-0.17-0.27-0.26-0.57-0.26-0.91c0-0.2,0.05-0.57,0.16-1.11l0.13-0.67c-0.2,0.49-0.52,1.03-0.96,1.61
			c-0.79,1.02-1.56,1.52-2.3,1.52c-0.45,0-0.8-0.16-1.06-0.49c-0.26-0.32-0.39-0.76-0.39-1.32c0-0.77,0.2-1.56,0.61-2.35
			c0.41-0.79,0.92-1.45,1.55-1.96c0.63-0.52,1.26-0.77,1.88-0.77c0.46,0,0.89,0.14,1.29,0.41l1.91-9.57L27.23,0z M23.95,10.76
			c-0.07-0.21-0.22-0.38-0.43-0.51c-0.22-0.13-0.45-0.19-0.7-0.19c-0.37,0-0.75,0.16-1.13,0.49s-0.75,0.79-1.1,1.39
			c-0.25,0.45-0.46,0.93-0.62,1.46s-0.24,1.01-0.24,1.44c0,0.38,0.08,0.68,0.24,0.9s0.38,0.34,0.66,0.34c0.33,0,0.68-0.17,1.06-0.5
			s0.76-0.82,1.14-1.45c0.26-0.43,0.46-0.88,0.61-1.34c0.18-0.59,0.31-1.07,0.39-1.43L23.95,10.76z"/>
		<path d="M31.56,16.38l-0.77,0.25l0.93-4.77l0.08-0.41c0.05-0.23,0.07-0.41,0.07-0.56c0-0.34-0.14-0.52-0.41-0.52
			c-0.26,0-0.57,0.17-0.94,0.52s-0.75,0.85-1.16,1.51c-0.27,0.42-0.49,0.83-0.69,1.22c-0.19,0.39-0.37,0.81-0.53,1.25
			c-0.16,0.44-0.31,0.95-0.46,1.52l-0.73,0.25l1.21-6.49l1.13-0.48l-1.02,4.25c0.52-1.21,1.12-2.21,1.8-2.98
			c0.68-0.78,1.28-1.17,1.82-1.17c0.59,0,0.88,0.33,0.88,1c0,0.23-0.06,0.63-0.18,1.21l-0.39,1.75c0.76-1.45,1.4-2.48,1.92-3.08
			s1.04-0.9,1.56-0.9c0.29,0,0.52,0.09,0.68,0.26c0.16,0.17,0.25,0.42,0.25,0.74c0,0.26-0.08,0.7-0.23,1.34l-0.36,1.44l-0.12,0.46
			c-0.11,0.48-0.16,0.84-0.16,1.08c0,0.25,0.04,0.45,0.13,0.6s0.2,0.23,0.33,0.23c0.25,0,0.64-0.29,1.17-0.87l0.18,0.16l-0.11,0.13
			c-0.45,0.52-0.78,0.88-0.99,1.06c-0.22,0.18-0.41,0.28-0.59,0.28c-0.24,0-0.45-0.12-0.62-0.37c-0.17-0.25-0.25-0.55-0.25-0.92
			c0-0.23,0.05-0.6,0.15-1.11l0.43-2.43l0.07-0.42c0.05-0.23,0.07-0.42,0.07-0.56s-0.04-0.25-0.13-0.34
			c-0.09-0.09-0.2-0.13-0.35-0.13c-0.17,0-0.36,0.07-0.57,0.22c-0.21,0.14-0.43,0.37-0.66,0.66c-0.23,0.3-0.5,0.69-0.79,1.17
			c-0.39,0.66-0.71,1.28-0.95,1.86C32.02,14.84,31.79,15.55,31.56,16.38z"/>
		<path d="M38.68,14.26c0-0.7,0.19-1.4,0.57-2.1c0.38-0.7,0.87-1.27,1.47-1.71s1.22-0.66,1.84-0.66c0.66,0,1.19,0.22,1.59,0.65
			c0.4,0.43,0.6,0.99,0.6,1.68c0,0.75-0.19,1.48-0.56,2.18c-0.37,0.7-0.86,1.28-1.47,1.73c-0.61,0.45-1.22,0.67-1.84,0.67
			c-0.67,0-1.2-0.22-1.61-0.67C38.89,15.59,38.68,15,38.68,14.26z M43.7,11.68c0-0.47-0.12-0.86-0.35-1.16
			c-0.23-0.3-0.53-0.46-0.89-0.46c-0.33,0-0.64,0.11-0.94,0.32s-0.58,0.52-0.83,0.93c-0.28,0.47-0.51,1.02-0.7,1.64
			c-0.18,0.62-0.28,1.18-0.28,1.66c0,0.58,0.11,1.02,0.34,1.34c0.23,0.31,0.55,0.47,0.97,0.47c0.68,0,1.28-0.47,1.79-1.42
			c0.27-0.48,0.48-1.03,0.63-1.63C43.63,12.77,43.7,12.21,43.7,11.68z"/>
	</g>
	<g>
		<path d="M12.62,31.96H9.7l-0.02,0.06c-0.49,1.18-1.12,2.19-1.88,3.04c-0.76,0.84-1.63,1.48-2.59,1.9
			c-0.97,0.43-2.02,0.64-3.15,0.64c-0.77,0-1.46-0.1-2.05-0.29l0.38-0.9c0.92,0.46,1.8,0.69,2.66,0.69c1.35,0,2.55-0.52,3.61-1.55
			c0.45-0.44,0.82-0.91,1.12-1.41c0.3-0.5,0.63-1.21,0.98-2.12l0.02-0.06H7.59l0.08-0.4h1.24l0.02-0.07l0.08-0.2
			c0.27-0.74,0.5-1.47,0.72-2.18c0.21-0.71,0.47-1.68,0.77-2.89c0.29-1.14,0.5-2.06,0.62-2.77l1.22-0.55
			c-0.06-0.02-0.11-0.03-0.15-0.03s-0.09-0.01-0.14-0.02c-1.97-0.22-3.66-0.33-5.07-0.33c-0.89,0-1.62,0.06-2.2,0.17
			c-0.57,0.11-1.05,0.29-1.41,0.52c-0.55,0.35-0.82,0.79-0.82,1.32c0,1.1,1.38,1.73,4.13,1.88L5.9,27.25
			c-1.12-0.07-2.02-0.34-2.69-0.8c-0.68-0.46-1.01-1.06-1.01-1.79c0-0.96,0.61-1.73,1.82-2.32c1.02-0.49,2.53-0.74,4.53-0.74
			c0.53,0,1.22,0.03,2.06,0.09s1.71,0.14,2.61,0.24c0.9,0.1,1.65,0.2,2.24,0.31l0.21,0.04l-0.53,1.05l-0.21-0.04
			c-0.7-0.12-1.51-0.25-2.44-0.39L12.4,22.9l-0.01,0.07c-0.04,0.2-0.15,0.66-0.32,1.4s-0.33,1.35-0.46,1.83
			c-0.13,0.48-0.27,0.99-0.42,1.51c-0.15,0.52-0.31,1.04-0.48,1.55c-0.3,0.91-0.58,1.68-0.83,2.3h2.84L12.62,31.96z"/>
		<path d="M20.85,30.22l-1.1,4.29c-0.12,0.47-0.18,0.84-0.18,1.1c0,0.23,0.05,0.44,0.15,0.61c0.1,0.17,0.23,0.26,0.38,0.26
			c0.23,0,0.6-0.28,1.13-0.83l0.16,0.16l-0.13,0.15c-0.41,0.48-0.73,0.81-0.96,1s-0.42,0.29-0.58,0.29c-0.25,0-0.47-0.13-0.65-0.39
			c-0.18-0.26-0.28-0.56-0.28-0.91c0-0.25,0.09-0.82,0.28-1.7l0.09-0.45c-0.29,0.67-0.68,1.32-1.16,1.93
			c-0.81,1.03-1.59,1.55-2.33,1.55c-0.45,0-0.8-0.16-1.06-0.48c-0.26-0.32-0.39-0.75-0.39-1.29c0-0.73,0.21-1.5,0.63-2.31
			s0.94-1.47,1.56-1.99c0.62-0.52,1.23-0.78,1.81-0.78c0.62,0,1.08,0.23,1.38,0.68l0.13-0.45L20.85,30.22z M19.5,31.72
			c-0.09-0.3-0.25-0.53-0.48-0.7c-0.22-0.17-0.48-0.25-0.77-0.25c-0.34,0-0.71,0.16-1.09,0.47s-0.74,0.76-1.06,1.32
			c-0.25,0.45-0.46,0.94-0.63,1.48c-0.17,0.54-0.25,0.98-0.25,1.34c0,0.4,0.08,0.71,0.23,0.94c0.15,0.23,0.37,0.34,0.65,0.34
			c0.36,0,0.73-0.17,1.13-0.5c0.39-0.34,0.78-0.82,1.16-1.44c0.23-0.36,0.42-0.72,0.55-1.08c0.13-0.36,0.28-0.86,0.45-1.5
			L19.5,31.72z M18.3,27.86c0.11,0,0.21,0.02,0.29,0.07s0.15,0.11,0.19,0.19s0.07,0.18,0.07,0.29c0,0.15-0.05,0.28-0.16,0.39
			s-0.24,0.16-0.39,0.16c-0.14,0-0.27-0.05-0.38-0.16s-0.16-0.24-0.16-0.39c0-0.16,0.05-0.3,0.15-0.4S18.15,27.86,18.3,27.86z
			 M20.14,27.86c0.1,0,0.19,0.02,0.28,0.07s0.15,0.11,0.19,0.19s0.07,0.18,0.07,0.29c0,0.15-0.05,0.28-0.16,0.39
			c-0.11,0.11-0.23,0.16-0.38,0.16c-0.15,0-0.28-0.05-0.39-0.16c-0.11-0.11-0.16-0.24-0.16-0.39c0-0.16,0.05-0.3,0.15-0.4
			C19.85,27.91,19.98,27.86,20.14,27.86z"/>
		<path d="M22.53,33.82c0.67-0.81,1.12-1.57,1.35-2.27c-0.63-0.35-0.95-0.86-0.95-1.51c0-0.31,0.07-0.57,0.22-0.76
			c0.15-0.2,0.34-0.29,0.56-0.29c0.23,0,0.43,0.11,0.58,0.32c0.15,0.21,0.22,0.49,0.22,0.84c0,0.24-0.04,0.51-0.13,0.81
			c0.21,0.05,0.4,0.08,0.57,0.08c0.48,0,0.88-0.14,1.2-0.42h0.56l-0.08,0.16c-0.56,1.03-1.03,2.04-1.39,3.04s-0.55,1.74-0.55,2.23
			c0,0.18,0.05,0.33,0.14,0.45s0.21,0.18,0.34,0.18c0.32,0,0.84-0.34,1.55-1.02l0.19,0.21c-0.22,0.24-0.56,0.54-1.02,0.9
			c-0.41,0.33-0.8,0.49-1.16,0.49c-0.31,0-0.55-0.1-0.72-0.3c-0.18-0.2-0.26-0.48-0.26-0.83c0-0.59,0.23-1.33,0.68-2.23
			c0.16-0.34,0.38-0.72,0.63-1.15c0.26-0.43,0.58-0.94,0.97-1.54l0.12-0.16c-0.26,0.23-0.51,0.4-0.75,0.5s-0.51,0.15-0.82,0.15
			c-0.14,0-0.29-0.02-0.45-0.06c-0.25,0.77-0.72,1.55-1.41,2.37L22.53,33.82z M24.13,30.84c0.03-0.2,0.05-0.36,0.05-0.49
			c0-0.27-0.04-0.49-0.13-0.64s-0.21-0.23-0.35-0.23c-0.08,0-0.15,0.04-0.21,0.11c-0.06,0.07-0.09,0.17-0.09,0.28
			C23.41,30.23,23.65,30.56,24.13,30.84z"/>
		<path d="M34.76,30.22l-1.79,7.14c-0.18,0.77-0.34,1.33-0.48,1.69c-0.14,0.36-0.3,0.69-0.5,0.98c-0.37,0.56-0.82,0.99-1.34,1.29
			s-1.1,0.45-1.71,0.45c-0.56,0-1.04-0.16-1.47-0.47l0.6-0.77c0.51,0.48,1.01,0.73,1.51,0.73c0.32,0,0.65-0.1,0.97-0.3
			s0.57-0.45,0.73-0.75c0.2-0.36,0.41-1.01,0.63-1.96l0.9-3.87c-1.05,1.95-2.11,2.93-3.19,2.93c-0.44,0-0.79-0.17-1.06-0.5
			s-0.4-0.76-0.4-1.27c0-0.73,0.21-1.5,0.62-2.3s0.94-1.46,1.57-1.99c0.63-0.53,1.24-0.79,1.84-0.79c0.56,0,1.02,0.21,1.38,0.62
			l0.11-0.41L34.76,30.22z M33.45,31.68c-0.31-0.59-0.71-0.88-1.21-0.88c-0.52,0-1.04,0.29-1.55,0.87
			c-0.41,0.48-0.77,1.09-1.06,1.82c-0.29,0.73-0.44,1.38-0.44,1.96c0,0.39,0.08,0.7,0.25,0.92c0.17,0.22,0.4,0.33,0.71,0.33
			c0.31,0,0.66-0.17,1.04-0.52s0.76-0.83,1.13-1.45c0.43-0.71,0.76-1.55,1-2.53L33.45,31.68z"/>
		<path d="M35.91,37.27l3.12-16.03l1.23-0.6l-3.25,14.27c0.03-0.05,0.05-0.09,0.05-0.11l0.27-0.61c0.46-1.05,1.04-1.95,1.74-2.72
			c0.66-0.71,1.26-1.07,1.82-1.07c0.3,0,0.54,0.1,0.72,0.29c0.18,0.19,0.27,0.45,0.27,0.77c0,0.18-0.04,0.43-0.13,0.76l-0.12,0.49
			l-0.36,1.43l-0.11,0.46c-0.12,0.47-0.18,0.83-0.18,1.08s0.04,0.45,0.13,0.6c0.09,0.15,0.2,0.23,0.34,0.23
			c0.24,0,0.63-0.29,1.16-0.87l0.18,0.16l-0.11,0.13c-0.45,0.52-0.78,0.88-0.99,1.06s-0.41,0.28-0.58,0.28
			c-0.24,0-0.45-0.13-0.62-0.39s-0.26-0.56-0.26-0.9c0-0.21,0.05-0.58,0.15-1.11l0.45-2.48c0.07-0.37,0.11-0.64,0.11-0.82
			c0-0.16-0.04-0.29-0.13-0.38s-0.2-0.13-0.35-0.13c-0.29,0-0.62,0.17-1,0.51s-0.75,0.81-1.13,1.41s-0.71,1.24-0.99,1.93
			c-0.28,0.68-0.49,1.38-0.63,2.1L35.91,37.27z"/>
		<path d="M50.54,30.22l-1.1,4.29c-0.12,0.47-0.18,0.84-0.18,1.1c0,0.23,0.05,0.44,0.15,0.61c0.1,0.17,0.23,0.26,0.38,0.26
			c0.23,0,0.6-0.28,1.13-0.83l0.16,0.16l-0.13,0.15c-0.41,0.48-0.73,0.81-0.96,1s-0.42,0.29-0.58,0.29c-0.25,0-0.47-0.13-0.65-0.39
			c-0.18-0.26-0.28-0.56-0.28-0.91c0-0.25,0.09-0.82,0.28-1.7l0.09-0.45c-0.29,0.67-0.68,1.32-1.16,1.93
			c-0.81,1.03-1.59,1.55-2.33,1.55c-0.45,0-0.8-0.16-1.06-0.48c-0.26-0.32-0.39-0.75-0.39-1.29c0-0.73,0.21-1.5,0.63-2.31
			s0.94-1.47,1.56-1.99c0.62-0.52,1.23-0.78,1.81-0.78c0.62,0,1.08,0.23,1.38,0.68l0.13-0.45L50.54,30.22z M49.19,31.72
			c-0.09-0.3-0.25-0.53-0.48-0.7c-0.22-0.17-0.48-0.25-0.77-0.25c-0.34,0-0.71,0.16-1.09,0.47S46.12,32,45.8,32.57
			c-0.25,0.45-0.46,0.94-0.63,1.48c-0.17,0.54-0.25,0.98-0.25,1.34c0,0.4,0.08,0.71,0.23,0.94c0.15,0.23,0.37,0.34,0.65,0.34
			c0.36,0,0.73-0.17,1.13-0.5c0.39-0.34,0.78-0.82,1.16-1.44c0.23-0.36,0.42-0.72,0.55-1.08c0.13-0.36,0.28-0.86,0.45-1.5
			L49.19,31.72z"/>
		<path d="M52.34,37.27l1.24-6.49l1.11-0.48l-1.01,4.3c0.65-1.37,1.29-2.41,1.94-3.12c0.64-0.71,1.26-1.07,1.84-1.07
			c0.29,0,0.52,0.1,0.7,0.29c0.18,0.19,0.27,0.45,0.27,0.77c0,0.18-0.04,0.43-0.13,0.76l-0.12,0.49l-0.35,1.43l-0.12,0.46
			c-0.12,0.47-0.18,0.83-0.18,1.08s0.04,0.45,0.13,0.6c0.09,0.15,0.2,0.23,0.34,0.23c0.24,0,0.63-0.29,1.16-0.87l0.19,0.16
			l-0.12,0.13c-0.45,0.52-0.77,0.88-0.99,1.06c-0.21,0.18-0.41,0.28-0.59,0.28c-0.24,0-0.45-0.12-0.62-0.37
			c-0.17-0.25-0.25-0.55-0.25-0.92c0-0.25,0.05-0.62,0.14-1.11l0.46-2.48c0.06-0.39,0.09-0.66,0.09-0.82c0-0.16-0.04-0.29-0.13-0.38
			c-0.09-0.09-0.2-0.13-0.35-0.13c-0.54,0-1.2,0.58-1.99,1.73c-0.38,0.55-0.7,1.1-0.95,1.65c-0.25,0.54-0.53,1.29-0.84,2.26
			l-0.11,0.32L52.34,37.27z"/>
		<path d="M62.73,30.89l-0.89,3.9c-0.09,0.43-0.14,0.73-0.14,0.91c0,0.28,0.07,0.51,0.2,0.68c0.13,0.17,0.31,0.26,0.53,0.26
			c0.21,0,0.4-0.06,0.58-0.18c0.18-0.12,0.44-0.37,0.8-0.76l0.14-0.14l0.18,0.18c-0.46,0.56-0.85,0.96-1.16,1.19
			s-0.61,0.35-0.91,0.35c-0.38,0-0.67-0.12-0.9-0.37c-0.22-0.25-0.33-0.57-0.33-0.97c0-0.3,0.06-0.73,0.18-1.29l0.76-3.76h-1.13
			l0.08-0.4h1.13l0.66-3.16l1.13-0.45l-0.82,3.61h1.9l-0.08,0.4H62.73z"/>
		<path d="M65.59,30.77l1.06-0.48v0.3c0.02,1.14,0.09,2.34,0.2,3.6c0.06,0.66,0.12,1.14,0.16,1.46c0.05,0.32,0.1,0.53,0.16,0.64
			c0.06,0.11,0.15,0.16,0.26,0.16c0.29,0,0.81-0.55,1.55-1.65c0.67-0.97,1-1.86,1-2.68c0-0.29-0.04-0.53-0.11-0.72
			c-0.07-0.19-0.2-0.38-0.4-0.58L70.36,30c0.27,0.36,0.41,0.8,0.41,1.31c0,1.04-0.62,2.41-1.85,4.11c-0.38,0.52-0.77,0.98-1.2,1.38
			c-0.2,0.18-0.35,0.31-0.48,0.38c-0.12,0.07-0.24,0.11-0.36,0.11c-0.19,0-0.32-0.07-0.41-0.22s-0.15-0.43-0.2-0.84L65.59,30.77z"/>
		<path d="M76.69,35.33l0.21,0.18c-0.48,0.64-0.96,1.1-1.42,1.39s-0.96,0.43-1.49,0.43c-0.63,0-1.14-0.21-1.52-0.63
			c-0.38-0.42-0.58-0.98-0.58-1.68c0-0.7,0.19-1.42,0.56-2.14c0.37-0.72,0.84-1.32,1.4-1.79c0.56-0.47,1.11-0.71,1.66-0.71
			c0.32,0,0.58,0.09,0.79,0.28c0.21,0.19,0.31,0.43,0.31,0.73c0,0.6-0.33,1.2-0.99,1.8c-0.66,0.6-1.55,1.11-2.69,1.54
			c-0.01,0.06-0.01,0.13-0.01,0.21c0,0.54,0.15,0.98,0.45,1.32c0.3,0.34,0.68,0.51,1.15,0.51c0.37,0,0.72-0.12,1.07-0.35
			S76.3,35.82,76.69,35.33z M72.94,34.44c0.84-0.38,1.49-0.79,1.95-1.25c0.3-0.31,0.55-0.65,0.74-1.01
			c0.19-0.36,0.28-0.68,0.28-0.97c0-0.37-0.17-0.55-0.5-0.55c-0.51,0-1.02,0.4-1.54,1.2C73.34,32.66,73.03,33.52,72.94,34.44z"/>
		<path d="M78.19,33.82c0.67-0.81,1.12-1.57,1.35-2.27c-0.63-0.35-0.95-0.86-0.95-1.51c0-0.31,0.07-0.57,0.22-0.76
			c0.15-0.2,0.34-0.29,0.56-0.29c0.23,0,0.43,0.11,0.58,0.32c0.15,0.21,0.22,0.49,0.22,0.84c0,0.24-0.04,0.51-0.13,0.81
			c0.21,0.05,0.4,0.08,0.57,0.08c0.48,0,0.88-0.14,1.2-0.42h0.56l-0.08,0.16c-0.56,1.03-1.03,2.04-1.39,3.04s-0.55,1.74-0.55,2.23
			c0,0.18,0.05,0.33,0.14,0.45s0.21,0.18,0.34,0.18c0.32,0,0.84-0.34,1.55-1.02l0.19,0.21c-0.22,0.24-0.56,0.54-1.02,0.9
			c-0.41,0.33-0.8,0.49-1.16,0.49c-0.31,0-0.55-0.1-0.72-0.3c-0.18-0.2-0.26-0.48-0.26-0.83c0-0.59,0.23-1.33,0.68-2.23
			c0.16-0.34,0.38-0.72,0.63-1.15c0.26-0.43,0.58-0.94,0.97-1.54l0.12-0.16c-0.26,0.23-0.51,0.4-0.75,0.5s-0.51,0.15-0.82,0.15
			c-0.14,0-0.29-0.02-0.45-0.06c-0.25,0.77-0.72,1.55-1.41,2.37L78.19,33.82z M79.8,30.84c0.03-0.2,0.05-0.36,0.05-0.49
			c0-0.27-0.04-0.49-0.13-0.64s-0.21-0.23-0.35-0.23c-0.08,0-0.15,0.04-0.21,0.11c-0.06,0.07-0.09,0.17-0.09,0.28
			C79.07,30.23,79.32,30.56,79.8,30.84z"/>
		<path d="M88.24,20.64L85.04,34.5c0.18-0.42,0.4-0.83,0.65-1.22c0.25-0.39,0.54-0.77,0.86-1.14c0.32-0.37,0.63-0.67,0.93-0.91
			c0.38-0.3,0.77-0.53,1.16-0.68s0.82-0.23,1.31-0.26l-0.21,0.94c-0.23-0.05-0.41-0.07-0.53-0.07c-0.92,0-1.78,0.46-2.58,1.39
			c0.32,0.86,0.66,1.63,1.02,2.32c0.2,0.4,0.38,0.72,0.53,0.96c0.15,0.24,0.29,0.41,0.42,0.52c0.13,0.11,0.26,0.16,0.38,0.16
			c0.3,0,0.67-0.24,1.13-0.71l0.09-0.11l0.15,0.18c-0.79,0.95-1.37,1.43-1.72,1.43c-0.24,0-0.47-0.11-0.68-0.32
			c-0.21-0.21-0.46-0.57-0.74-1.09c-0.49-0.9-0.9-1.75-1.21-2.55c-0.74,1.21-1.2,2.43-1.41,3.67l-0.76,0.25l3.14-16.02L88.24,20.64z
			"/>
	</g>
</g>
</svg>
